# File created by Blade
# Date/Time:  Tue Jan 27 19:58:39 2015
#---------------------------------------------------------
:version 1.10
:name HOM
:units
  mass 1.0
  length 1.000000
  angle deg
:documentation
     Acclaim Skeleton File
:root
   axis xyz
   order TX TY TZ RX RY RZ
   position 0.000000 0.000000 0.000000
   orientation 0 0 0
:bonedata
   begin
      id 1
      name Spine_dum
      direction 0.000000 1.000000 0.000000
      length 6.116652
      axis 0.0 0.0 0.0 xyz
   end
   begin
      id 2
      name LeftUpLeg_dum
      direction 1.000000 0.000000 0.000000
      length 4.711765
      axis 0.0 0.0 0.0 xyz
   end
   begin
      id 3
      name RightUpLeg_dum
      direction -1.000000 0.000000 0.000000
      length 4.711765
      axis 0.0 0.0 0.0 xyz
   end
   begin
      id 4
      name Spine
      direction 0.000000 1.000000 0.000000
      length 0.000000
      axis 0.0 0.0 0.0 xyz
      dof rx ry rz
   end
   begin
      id 5
      name Spine_dum1
      direction 0.000000 1.000000 0.000000
      length 15.225563
      axis 0.0 0.0 0.0 xyz
   end
   begin
      id 6
      name Spine_dum2
      direction 0.000000 1.000000 0.000000
      length 8.977654
      axis 0.0 0.0 0.0 xyz
   end
   begin
      id 7
      name Spine_dum3
      direction 0.000000 1.000000 0.000000
      length 8.977654
      axis 0.0 0.0 0.0 xyz
   end
   begin
      id 8
      name Head
      direction 0.000000 1.000000 0.000000
      length 4.527550
      axis 0.0 0.0 0.0 xyz
      dof rx ry rz
   end
   begin
      id 9
      name LeftShoulder
      direction 1.000000 0.000000 0.000000
      length 7.110130
      axis 0.0 0.0 -90.0 xyz
      dof rx ry rz
   end
   begin
      id 10
      name LeftArm
      direction 1.000000 0.000000 0.000000
      length 10.398341
      axis 0.0 0.0 -90.0 xyz
      dof rx ry rz
   end
   begin
      id 11
      name LeftForeArm
      direction 1.000000 0.000000 0.000000
      length 8.888997
      axis 0.0 0.0 -90.0 xyz
      dof ry rz rx
   end
   begin
      id 12
      name LeftHand
      direction 0.000000 0.000000 0.000000
      length 0.000000
      axis 0.0 0.0 -90.0 xyz
      dof rx ry rz
   end
   begin
      id 13
      name LeftHand_dum1
      direction 0.000000 0.000000 0.000000
      length 0.000000
      axis 0.0 0.0 -90.0 xyz
   end
   begin
      id 14
      name LeftHand_dum2
      direction 1.000000 0.000000 0.000000
      length 3.937000
      axis 0.0 0.0 -90.0 xyz
   end
   begin
      id 15
      name LeftHandThumb1
      direction 0.000000 0.000000 1.000000
      length 3.937000
      axis 0.0 0.0 -90.0 xyz
      dof rx rz ry
   end
   begin
      id 16
      name RightShoulder
      direction -1.000000 0.000000 0.000000
      length 7.110130
      axis 0.0 0.0 90.0 xyz
      dof rx ry rz
   end
   begin
      id 17
      name RightArm
      direction -1.000000 0.000000 0.000000
      length 10.398341
      axis 0.0 0.0 90.0 xyz
      dof rx ry rz
   end
   begin
      id 18
      name RightForeArm
      direction -1.000000 0.000000 0.000000
      length 8.888997
      axis 0.0 0.0 90.0 xyz
      dof ry rz rx
   end
   begin
      id 19
      name RightHand
      direction 0.000000 0.000000 0.000000
      length 0.000000
      axis 0.0 0.0 90.0 xyz
      dof rx ry rz
   end
   begin
      id 20
      name RightHand_dum1
      direction 0.000000 0.000000 0.000000
      length 0.000000
      axis 0.0 0.0 90.0 xyz
   end
   begin
      id 21
      name RightHand_dum2
      direction -1.000000 0.000000 0.000000
      length 3.937000
      axis 0.0 0.0 90.0 xyz
   end
   begin
      id 22
      name RightHandThumb1
      direction 0.000000 0.000000 1.000000
      length 3.937000
      axis 0.0 0.0 90.0 xyz
      dof rx rz ry
   end
   begin
      id 23
      name LeftUpLeg
      direction 0.000000 -1.000000 0.000000
      length 15.510451
      axis 0.0 0.0 0.0 xyz
      dof rx ry rz
   end
   begin
      id 24
      name LeftLeg
      direction 0.000000 -1.000000 0.000000
      length 14.858061
      axis 0.0 0.0 0.0 xyz
      dof rx ry rz
   end
   begin
      id 25
      name LeftFoot
      direction 0.000000 -0.258819 0.965926
      length 5.128852
      axis 15.0 0.0 0.0 xyz
      dof rx ry rz
   end
   begin
      id 26
      name LeftToeBase
      direction 0.000000 0.000000 1.000000
      length 2.952750
      axis 0.0 0.0 0.0 xyz
      dof rx ry rz
   end
   begin
      id 27
      name RightUpLeg
      direction 0.000000 -1.000000 0.000000
      length 15.510451
      axis 0.0 0.0 0.0 xyz
      dof rx ry rz
   end
   begin
      id 28
      name RightLeg
      direction 0.000000 -1.000000 0.000000
      length 14.858061
      axis 0.0 0.0 0.0 xyz
      dof rx ry rz
   end
   begin
      id 29
      name RightFoot
      direction 0.000000 -0.258819 0.965926
      length 5.128852
      axis 15.0 0.0 0.0 xyz
      dof rx ry rz
   end
   begin
      id 30
      name RightToeBase
      direction 0.000000 0.000000 1.000000
      length 2.952750
      axis 0.0 0.0 0.0 xyz
      dof rx ry rz
   end
:hierarchy
   begin
      root Spine_dum LeftUpLeg_dum RightUpLeg_dum
      Spine_dum Spine
      LeftUpLeg_dum LeftUpLeg
      RightUpLeg_dum RightUpLeg
      Spine Spine_dum1 Spine_dum2 Spine_dum3
      Spine_dum1 Head
      Spine_dum2 LeftShoulder
      Spine_dum3 RightShoulder
      LeftShoulder LeftArm
      LeftArm LeftForeArm
      LeftForeArm LeftHand
      LeftHand LeftHand_dum1 LeftHand_dum2
      LeftHand_dum1 LeftHandThumb1
      RightShoulder RightArm
      RightArm RightForeArm
      RightForeArm RightHand
      RightHand RightHand_dum1 RightHand_dum2
      RightHand_dum1 RightHandThumb1
      LeftUpLeg LeftLeg
      LeftLeg LeftFoot
      LeftFoot LeftToeBase
      RightUpLeg RightLeg
      RightLeg RightFoot
      RightFoot RightToeBase
   end

# File created by Blade
# Date/Time:  Tue Jan 27 19:58:31 2015
# Frame Rate: 120.000 fps
#------------------------------------------------------
:FULLY-SPECIFIED
:DEGREES
1
root 3.713243 32.322754 1.613819 -1.703185 3.180702 0.686516
Spine 4.390102 4.862890 -1.491449
Head -11.850025 -5.555752 2.810619
LeftShoulder -16.625907 2.706642 31.361751
LeftArm 6.819856 27.002344 -65.642757
LeftForeArm -16.817073 -0.000000 105.351731
LeftHand 9.900982 -0.000000 -19.611959
LeftHandThumb1 -26.253704 0.000000 33.147579
RightShoulder -22.176770 -23.643848 -29.708627
RightArm 1.010457 19.395033 74.556981
RightForeArm -20.595683 0.000000 89.014224
RightHand 14.641743 -0.000000 6.467978
RightHandThumb1 -24.326973 -0.000000 -32.862282
LeftUpLeg 4.496814 3.983222 -2.400133
LeftLeg 4.960198 -0.000000 -0.000000
LeftFoot -15.360048 7.951864 -17.170110
LeftToeBase 17.472412 -0.000000 -0.000000
RightUpLeg 4.993740 -4.454394 4.744901
RightLeg 2.788498 -0.000000 -0.000000
RightFoot -14.334333 -16.487560 16.156156
RightToeBase 11.544056 -0.000000 -0.000000
2
root 3.718769 32.322203 1.601497 -1.635790 3.324115 0.700064
Spine 4.358169 4.630049 -1.474644
Head -11.882296 -5.502077 2.707005
LeftShoulder -16.738375 2.819959 31.052523
LeftArm 7.312426 27.799033 -66.696009
LeftForeArm -18.103612 -0.000000 106.899625
LeftHand 9.866412 -0.000000 -20.060657
LeftHandThumb1 -26.253704 0.000000 33.147579
RightShoulder -22.232497 -23.680572 -29.601914
RightArm 0.952145 18.676920 75.588389
RightForeArm -20.503049 -0.000000 90.535643
RightHand 14.623163 -0.000000 6.751075
RightHandThumb1 -24.326973 -0.000000 -32.862282
LeftUpLeg 4.381457 3.652914 -2.454197
LeftLeg 4.984158 -0.000000 -0.000000
LeftFoot -15.395734 8.106232 -17.245643
LeftToeBase 17.542225 -0.000000 -0.000000
RightUpLeg 4.912924 -4.665650 4.711601
RightLeg 2.793010 -0.000000 -0.000000
RightFoot -14.326927 -16.398404 16.160022
RightToeBase 11.478244 -0.000000 -0.000000
3
root 3.709798 32.322825 1.603971 -1.678350 3.272869 0.721663
Spine 4.419519 4.646890 -1.527522
Head -11.909426 -5.487726 2.719079
LeftShoulder -16.818394 2.758125 30.825232
LeftArm 7.716822 28.627042 -67.732464
LeftForeArm -19.215909 -0.000000 108.274674
LeftHand 10.078398 -0.000000 -20.760623
LeftHandThumb1 -26.253704 0.000000 33.147579
RightShoulder -22.308191 -23.776885 -29.389129
RightArm 0.893955 17.947173 76.647509
RightForeArm -20.569890 -0.000000 92.057861
RightHand 14.516551 -0.000000 7.062605
RightHandThumb1 -24.326973 -0.000000 -32.862282
LeftUpLeg 4.511911 3.509715 -2.472103
LeftLeg 4.841243 -0.000000 -0.000000
LeftFoot -15.367400 8.237518 -17.305100
LeftToeBase 17.472632 -0.000000 -0.000000
RightUpLeg 4.954825 -4.609486 4.708082
RightLeg 2.800046 -0.000000 -0.000000
RightFoot -14.352906 -16.407034 16.165462
RightToeBase 11.573765 -0.000000 -0.000000
4
root 3.701638 32.322930 1.601351 -1.675694 3.266514 0.740714
Spine 4.434716 4.654059 -1.576944
Head -11.922856 -5.502496 2.731270
LeftShoulder -16.849140 2.610526 30.620954
LeftArm 8.110695 29.453768 -68.812041
LeftForeArm -20.264641 -0.000000 109.518883
LeftHand 10.282598 -0.000000 -21.572532
LeftHandThumb1 -26.253704 0.000000 33.147579
RightShoulder -22.370835 -23.876365 -29.165983
RightArm 0.801771 17.239705 77.730142
RightForeArm -20.600301 -0.000000 93.549092
RightHand 14.358396 -0.000000 7.282417
RightHandThumb1 -24.326973 -0.000000 -32.862282
LeftUpLeg 4.564644 3.319870 -2.494893
LeftLeg 4.710469 -0.000000 -0.000000
LeftFoot -15.376929 8.430301 -17.461012
LeftToeBase 17.612056 -0.000000 -0.000000
RightUpLeg 4.943666 -4.597227 4.705771
RightLeg 2.810306 -0.000000 -0.000000
RightFoot -14.365033 -16.423826 16.154623
RightToeBase 11.574710 -0.000000 -0.000000
5
root 3.694575 32.322580 1.598444 -1.661602 3.287379 0.757015
Spine 4.435455 4.611383 -1.616258
Head -11.929695 -5.502964 2.729168
LeftShoulder -16.875369 2.363954 30.449440
LeftArm 8.402183 30.324056 -69.923574
LeftForeArm -21.278078 -0.000000 110.721788
LeftHand 10.275669 -0.000000 -22.084342
LeftHandThumb1 -26.253704 0.000000 33.147579
RightShoulder -22.377268 -23.867901 -28.999256
RightArm 0.594840 16.478948 78.755396
RightForeArm -20.715925 -0.000000 94.978724
RightHand 14.447663 -0.000000 7.416155
RightHandThumb1 -24.326973 -0.000000 -32.862282
LeftUpLeg 4.598677 3.078244 -2.523421
LeftLeg 4.599253 -0.000000 -0.000000
LeftFoot -15.393670 8.612123 -17.584527
LeftToeBase 17.657252 -0.000000 -0.000000
RightUpLeg 4.921664 -4.648219 4.700770
RightLeg 2.821092 -0.000000 -0.000000
RightFoot -14.367459 -16.397297 16.131862
RightToeBase 11.556228 -0.000000 -0.000000
